<svg width="28" height="27" viewBox="0 0 28 27" fill="none" xmlns="http://www.w3.org/2000/svg">
                                <path d="M0.666656 19.0666V1.99996C0.666656 1.62218 0.794657 1.30529 1.05066 1.04929C1.30577 0.794181 1.62221 0.666626 1.99999 0.666626H19.3333C19.7111 0.666626 20.0275 0.794181 20.2827 1.04929C20.5387 1.30529 20.6667 1.62218 20.6667 1.99996V14C20.6667 14.3777 20.5387 14.6942 20.2827 14.9493C20.0275 15.2053 19.7111 15.3333 19.3333 15.3333H5.99999L1.79999 19.5333C1.57777 19.7555 1.33332 19.8111 1.06666 19.7C0.79999 19.5888 0.666656 19.3777 0.666656 19.0666ZM7.33332 22C6.95554 22 6.63866 21.872 6.38266 21.616C6.12755 21.3608 5.99999 21.0444 5.99999 20.6666V18H23.3333V5.99996H26C26.3778 5.99996 26.6942 6.12752 26.9493 6.38263C27.2053 6.63863 27.3333 6.95551 27.3333 7.33329V25.7333C27.3333 26.0444 27.2 26.2555 26.9333 26.3666C26.6667 26.4777 26.4222 26.4222 26.2 26.2L22 22H7.33332ZM18 3.33329H3.33332V12.6666H18V3.33329Z" fill="#202020"></path>
                            </svg>