<svg width="22" height="22" viewBox="0 0 22 22" fill="none" xmlns="http://www.w3.org/2000/svg">
                                <path d="M8.02082 21.8333L7.58749 18.3667C7.35277 18.2764 7.13177 18.1681 6.92449 18.0417C6.71649 17.9153 6.51318 17.7799 6.31457 17.6354L3.09165 18.9896L0.112488 13.8438L2.90207 11.7313C2.88402 11.6049 2.87499 11.4828 2.87499 11.3651V10.6338C2.87499 10.5168 2.88402 10.3951 2.90207 10.2688L0.112488 8.15625L3.09165 3.01042L6.31457 4.36459C6.51318 4.22014 6.72082 4.08473 6.93749 3.95834C7.15415 3.83195 7.37082 3.72362 7.58749 3.63334L8.02082 0.166672H13.9792L14.4125 3.63334C14.6472 3.72362 14.8686 3.83195 15.0766 3.95834C15.2838 4.08473 15.4868 4.22014 15.6854 4.36459L18.9083 3.01042L21.8875 8.15625L19.0979 10.2688C19.116 10.3951 19.125 10.5168 19.125 10.6338V11.3651C19.125 11.4828 19.1069 11.6049 19.0708 11.7313L21.8604 13.8438L18.8812 18.9896L15.6854 17.6354C15.4868 17.7799 15.2792 17.9153 15.0625 18.0417C14.8458 18.1681 14.6292 18.2764 14.4125 18.3667L13.9792 21.8333H8.02082ZM9.91665 19.6667H12.0562L12.4354 16.7958C12.9951 16.6514 13.5144 16.4391 13.9932 16.1588C14.4713 15.8793 14.909 15.541 15.3062 15.1438L17.9875 16.2542L19.0437 14.4125L16.7146 12.6521C16.8048 12.3993 16.868 12.1328 16.9042 11.8526C16.9403 11.5731 16.9583 11.2889 16.9583 11C16.9583 10.7111 16.9403 10.4266 16.9042 10.1463C16.868 9.86684 16.8048 9.6007 16.7146 9.34792L19.0437 7.5875L17.9875 5.74584L15.3062 6.88334C14.909 6.46806 14.4713 6.12031 13.9932 5.84009C13.5144 5.56059 12.9951 5.34862 12.4354 5.20417L12.0833 2.33334H9.94374L9.56457 5.20417C9.00485 5.34862 8.48593 5.56059 8.00782 5.84009C7.52899 6.12031 7.09096 6.45903 6.69374 6.85625L4.01249 5.74584L2.95624 7.5875L5.2854 9.32084C5.19513 9.59167 5.13193 9.8625 5.09582 10.1333C5.05971 10.4042 5.04165 10.6931 5.04165 11C5.04165 11.2889 5.05971 11.5688 5.09582 11.8396C5.13193 12.1104 5.19513 12.3813 5.2854 12.6521L2.95624 14.4125L4.01249 16.2542L6.69374 15.1167C7.09096 15.5319 7.52899 15.8793 8.00782 16.1588C8.48593 16.4391 9.00485 16.6514 9.56457 16.7958L9.91665 19.6667ZM11 15.3333C11.3069 15.3333 11.5644 15.2293 11.7724 15.0213C11.9797 14.8141 12.0833 14.5569 12.0833 14.25C12.0833 13.9431 11.9797 13.6856 11.7724 13.4776C11.5644 13.2703 11.3069 13.1667 11 13.1667C10.693 13.1667 10.4359 13.2703 10.2287 13.4776C10.0207 13.6856 9.91665 13.9431 9.91665 14.25C9.91665 14.5569 10.0207 14.8141 10.2287 15.0213C10.4359 15.2293 10.693 15.3333 11 15.3333ZM9.91665 12.0833H12.0833V6.66667H9.91665V12.0833Z" fill="#202020"></path>
                            </svg>