<svg width="14" height="22" viewBox="0 0 14 22" fill="none" xmlns="http://www.w3.org/2000/svg">
                            <path d="M7 21.8333C5.08611 21.8333 3.52431 21.531 2.31458 20.9265C1.10486 20.3213 0.5 19.5402 0.5 18.5833C0.5 17.9513 0.761805 17.4006 1.28542 16.9312C1.80903 16.4617 2.53125 16.0916 3.45208 15.8208L4.075 17.8791C3.76806 17.9694 3.48819 18.0824 3.23542 18.2182C2.98264 18.3532 2.81111 18.4749 2.72083 18.5833C2.95556 18.8722 3.49722 19.1249 4.34583 19.3416C5.19444 19.5583 6.07917 19.6666 7 19.6666C7.92083 19.6666 8.81025 19.5583 9.66825 19.3416C10.5255 19.1249 11.0715 18.8722 11.3063 18.5833C11.216 18.4749 11.0444 18.3532 10.7917 18.2182C10.5389 18.0824 10.259 17.9694 9.95208 17.8791L10.575 15.8208C11.4958 16.0916 12.2137 16.4617 12.7287 16.9312C13.2429 17.4006 13.5 17.9513 13.5 18.5833C13.5 19.5402 12.8951 20.3213 11.6854 20.9265C10.4757 21.531 8.91389 21.8333 7 21.8333ZM7 14.602C7.325 14.0062 7.66806 13.4598 8.02917 12.9629C8.39028 12.4668 8.74236 11.993 9.08542 11.5416C9.75347 10.6749 10.2861 9.89385 10.6833 9.19835C11.0806 8.50357 11.2792 7.6416 11.2792 6.61243C11.2792 5.42076 10.8639 4.40965 10.0333 3.5791C9.20278 2.74854 8.19167 2.33326 7 2.33326C5.80833 2.33326 4.79722 2.74854 3.96667 3.5791C3.13611 4.40965 2.72083 5.42076 2.72083 6.61243C2.72083 7.6416 2.91944 8.50357 3.31667 9.19835C3.71389 9.89385 4.24653 10.6749 4.91458 11.5416C5.25764 11.993 5.60972 12.4668 5.97083 12.9629C6.33194 13.4598 6.675 14.0062 7 14.602ZM7 18.5833C6.80139 18.5833 6.62083 18.5244 6.45833 18.4067C6.29583 18.2897 6.17847 18.1319 6.10625 17.9333C5.69097 16.6513 5.16736 15.577 4.53542 14.7103C3.90347 13.8437 3.28958 13.0131 2.69375 12.2187C2.11597 11.4242 1.61511 10.6027 1.19117 9.7541C0.7665 8.90549 0.554167 7.85826 0.554167 6.61243C0.554167 4.80687 1.17708 3.28118 2.42292 2.03535C3.66875 0.789512 5.19444 0.166595 7 0.166595C8.80556 0.166595 10.3313 0.789512 11.5771 2.03535C12.8229 3.28118 13.4458 4.80687 13.4458 6.61243C13.4458 7.85826 13.2382 8.90549 12.8229 9.7541C12.4076 10.6027 11.9021 11.4242 11.3063 12.2187C10.7285 13.0131 10.1193 13.8437 9.47867 14.7103C8.83733 15.577 8.30903 16.6513 7.89375 17.9333C7.82153 18.1319 7.70417 18.2897 7.54167 18.4067C7.37917 18.5244 7.19861 18.5833 7 18.5833ZM7 8.91451C7.63194 8.91451 8.17361 8.68882 8.625 8.23743C9.07639 7.78604 9.30208 7.24437 9.30208 6.61243C9.30208 5.98048 9.07639 5.43882 8.625 4.98743C8.17361 4.53604 7.63194 4.31035 7 4.31035C6.36806 4.31035 5.82639 4.53604 5.375 4.98743C4.92361 5.43882 4.69792 5.98048 4.69792 6.61243C4.69792 7.24437 4.92361 7.78604 5.375 8.23743C5.82639 8.68882 6.36806 8.91451 7 8.91451Z" fill="white"></path>
                        </svg>