<svg width="22" height="23" viewBox="0 0 22 23" fill="none" xmlns="http://www.w3.org/2000/svg">
                                    <path d="M18.4208 22.8062C18.2764 22.8062 18.141 22.7838 18.0146 22.739C17.8882 22.6935 17.7708 22.6166 17.6625 22.5083L12.1375 16.9833C12.0292 16.8749 11.9526 16.7576 11.9078 16.6312C11.8623 16.5048 11.8396 16.3694 11.8396 16.2249C11.8396 16.0805 11.8623 15.9451 11.9078 15.8187C11.9526 15.6923 12.0292 15.5749 12.1375 15.4666L14.4396 13.1645C14.5479 13.0562 14.6653 12.9793 14.7917 12.9338C14.9181 12.889 15.0535 12.8666 15.1979 12.8666C15.3424 12.8666 15.4778 12.889 15.6042 12.9338C15.7306 12.9793 15.8479 13.0562 15.9563 13.1645L21.4813 18.6895C21.5896 18.7978 21.6665 18.9152 21.712 19.0416C21.7568 19.168 21.7792 19.3034 21.7792 19.4478C21.7792 19.5923 21.7568 19.7277 21.712 19.8541C21.6665 19.9805 21.5896 20.0978 21.4813 20.2062L19.1792 22.5083C19.0708 22.6166 18.9535 22.6935 18.8271 22.739C18.7007 22.7838 18.5653 22.8062 18.4208 22.8062ZM18.4208 20.2333L19.2063 19.4478L15.225 15.4666L14.4396 16.252L18.4208 20.2333ZM3.55209 22.8333C3.40764 22.8333 3.26789 22.8062 3.13284 22.752C2.99706 22.6978 2.87501 22.6166 2.76667 22.5083L0.491672 20.2333C0.383338 20.1249 0.302088 20.0029 0.247922 19.8671C0.193755 19.732 0.166672 19.5923 0.166672 19.4478C0.166672 19.3034 0.193755 19.168 0.247922 19.0416C0.302088 18.9152 0.383338 18.7978 0.491672 18.6895L6.23334 12.9478H8.53542L9.45625 12.027L4.9875 7.55825H3.44375L0.166672 4.28117L3.22709 1.22075L6.50417 4.49784V6.04159L10.9729 10.5103L14.1146 7.36867L12.95 6.20409L14.4667 4.68742H11.4063L10.6479 3.92909L14.4938 0.083252L15.2521 0.841585V3.902L16.7688 2.38534L20.6146 6.23117C20.9215 6.53811 21.1563 6.8855 21.3188 7.27334C21.4813 7.66189 21.5625 8.07283 21.5625 8.50617C21.5625 8.9395 21.4813 9.35478 21.3188 9.752C21.1563 10.1492 20.9215 10.5013 20.6146 10.8083L18.3125 8.50617L16.7958 10.0228L15.6583 8.88534L10.0521 14.4916V16.7666L4.31042 22.5083C4.20209 22.6166 4.08473 22.6978 3.95834 22.752C3.83195 22.8062 3.69653 22.8333 3.55209 22.8333ZM3.55209 20.2333L8.15625 15.6291V14.8437H7.37084L2.76667 19.4478L3.55209 20.2333ZM3.55209 20.2333L2.76667 19.4478L3.17292 19.827L3.55209 20.2333Z" fill="#202020"></path>
                                </svg>