<svg width="24" height="18" viewBox="0 0 24 18" fill="none" xmlns="http://www.w3.org/2000/svg">
                                    <path d="M14.1666 10.0833C13.2639 10.0833 12.4965 9.76728 11.8646 9.13533C11.2326 8.50339 10.9166 7.73603 10.9166 6.83325C10.9166 5.93047 11.2326 5.16311 11.8646 4.53117C12.4965 3.89922 13.2639 3.58325 14.1666 3.58325C15.0694 3.58325 15.8368 3.89922 16.4687 4.53117C17.1007 5.16311 17.4166 5.93047 17.4166 6.83325C17.4166 7.73603 17.1007 8.50339 16.4687 9.13533C15.8368 9.76728 15.0694 10.0833 14.1666 10.0833ZM6.58331 13.3333C5.98748 13.3333 5.47759 13.1209 5.05365 12.6963C4.62898 12.2723 4.41665 11.7624 4.41665 11.1666V2.49992C4.41665 1.90409 4.62898 1.3942 5.05365 0.970252C5.47759 0.545585 5.98748 0.333252 6.58331 0.333252H21.75C22.3458 0.333252 22.8561 0.545585 23.2807 0.970252C23.7047 1.3942 23.9166 1.90409 23.9166 2.49992V11.1666C23.9166 11.7624 23.7047 12.2723 23.2807 12.6963C22.8561 13.1209 22.3458 13.3333 21.75 13.3333H6.58331ZM8.74998 11.1666H19.5833C19.5833 10.5708 19.7953 10.0605 20.2192 9.63583C20.6439 9.21189 21.1541 8.99992 21.75 8.99992V4.66658C21.1541 4.66658 20.6439 4.45425 20.2192 4.02959C19.7953 3.60564 19.5833 3.09575 19.5833 2.49992H8.74998C8.74998 3.09575 8.53765 3.60564 8.11298 4.02959C7.68903 4.45425 7.17915 4.66658 6.58331 4.66658V8.99992C7.17915 8.99992 7.68903 9.21189 8.11298 9.63583C8.53765 10.0605 8.74998 10.5708 8.74998 11.1666ZM2.24998 17.6666C1.65415 17.6666 1.14426 17.4546 0.720313 17.0307C0.295646 16.606 0.083313 16.0958 0.083313 15.4999V4.66658C0.083313 4.35964 0.187313 4.10217 0.395313 3.89417C0.602591 3.68689 0.859702 3.58325 1.16665 3.58325C1.47359 3.58325 1.73106 3.68689 1.93906 3.89417C2.14634 4.10217 2.24998 4.35964 2.24998 4.66658V15.4999H19.5833C19.8903 15.4999 20.1474 15.6039 20.3546 15.8119C20.5626 16.0192 20.6666 16.2763 20.6666 16.5833C20.6666 16.8902 20.5626 17.1473 20.3546 17.3546C20.1474 17.5626 19.8903 17.6666 19.5833 17.6666H2.24998Z" fill="#202020"></path>
                                </svg>