<svg width="16" height="22" viewBox="0 0 16 22" fill="none" xmlns="http://www.w3.org/2000/svg">
                                    <path d="M6.42917 17.7166L12.0354 10.9999H7.70209L8.48751 4.85202L3.47709 12.0833H7.24167L6.42917 17.7166ZM4.75001 14.2499H1.39167C0.958341 14.2499 0.638035 14.0557 0.430757 13.6671C0.222757 13.2793 0.245146 12.9048 0.497924 12.5437L8.59584 0.897853C8.7764 0.645076 9.01112 0.468853 9.30001 0.369187C9.58889 0.270242 9.88681 0.274937 10.1938 0.38327C10.5007 0.491603 10.7264 0.681187 10.8708 0.95202C11.0153 1.22285 11.0695 1.51174 11.0333 1.81869L10.1667 8.83327H14.3646C14.834 8.83327 15.1637 9.04091 15.3537 9.45619C15.5429 9.87146 15.484 10.2597 15.1771 10.6208L6.26667 21.2916C6.06806 21.5263 5.82431 21.6798 5.53542 21.752C5.24653 21.8242 4.96667 21.7972 4.69584 21.6708C4.42501 21.5444 4.21303 21.3501 4.05992 21.0879C3.90609 20.8265 3.84723 20.5423 3.88334 20.2354L4.75001 14.2499Z" fill="#202020"></path>
                                </svg>