<svg width="23" height="23" viewBox="0 0 23 23" fill="none" xmlns="http://www.w3.org/2000/svg">
                                    <path d="M10 0.25C12.7083 0.25 15.0104 1.19792 16.9062 3.09375C18.8021 4.98958 19.75 7.29167 19.75 10H17.5833C17.5833 7.8875 16.8474 6.09531 15.3755 4.62342C13.9043 3.15225 12.1125 2.41667 10 2.41667C8.75417 2.41667 7.58958 2.70556 6.50625 3.28333C5.42292 3.86111 4.51111 4.65556 3.77083 5.66667H5.66667C5.97361 5.66667 6.23108 5.77031 6.43908 5.97758C6.64636 6.18558 6.75 6.44306 6.75 6.75C6.75 7.05694 6.64636 7.31406 6.43908 7.52133C6.23108 7.72933 5.97361 7.83333 5.66667 7.83333H1.33333C1.02639 7.83333 0.769278 7.72933 0.562 7.52133C0.354 7.31406 0.25 7.05694 0.25 6.75V2.41667C0.25 2.10972 0.354 1.85225 0.562 1.64425C0.769278 1.43697 1.02639 1.33333 1.33333 1.33333C1.64028 1.33333 1.89775 1.43697 2.10575 1.64425C2.31303 1.85225 2.41667 2.10972 2.41667 2.41667V3.87917C3.3375 2.72361 4.46164 1.82986 5.78908 1.19792C7.11581 0.565972 8.51944 0.25 10 0.25ZM11.4625 12.9792L9.24167 10.7583C9.13333 10.65 9.05208 10.5279 8.99792 10.3922C8.94375 10.2571 8.91667 10.1174 8.91667 9.97292V5.66667C8.91667 5.35972 9.02067 5.10225 9.22867 4.89425C9.43594 4.68697 9.69306 4.58333 10 4.58333C10.3069 4.58333 10.5644 4.68697 10.7724 4.89425C10.9797 5.10225 11.0833 5.35972 11.0833 5.66667V9.56667L12.6 11.0833L11.4625 12.9792ZM10.0813 19.75C7.77014 19.75 5.7165 19.0549 3.92033 17.6646C2.12344 16.2743 0.999306 14.6132 0.547917 12.6813C0.457639 12.3563 0.489417 12.0493 0.64325 11.7604C0.796361 11.4715 1.03542 11.291 1.36042 11.2188C1.66736 11.1465 1.94253 11.2141 2.18592 11.4213C2.43003 11.6293 2.59722 11.8868 2.6875 12.1938C3.06667 13.5299 3.81128 14.6807 4.92133 15.6463C6.03211 16.6127 7.31875 17.2222 8.78125 17.475L10.0813 19.75ZM16.1479 21.375C15.9312 21.2847 15.7283 21.1901 15.5391 21.0912C15.3491 20.9915 15.1549 20.8694 14.9563 20.725L13.7917 21.0771C13.6653 21.1132 13.5479 21.1085 13.4396 21.063C13.3313 21.0182 13.241 20.9417 13.1688 20.8333L12.5188 19.75C12.4465 19.6417 12.4285 19.5243 12.4646 19.3979C12.5007 19.2715 12.5639 19.1632 12.6542 19.0729L13.5479 18.2875C13.5118 18.0528 13.4938 17.8181 13.4938 17.5833C13.4938 17.3486 13.5118 17.1139 13.5479 16.8792L12.6542 16.0938C12.5639 16.0035 12.5007 15.8951 12.4646 15.7688C12.4285 15.6424 12.4465 15.525 12.5188 15.4167L13.1688 14.3333C13.241 14.225 13.3313 14.1481 13.4396 14.1026C13.5479 14.0578 13.6653 14.0535 13.7917 14.0896L14.9563 14.4417C15.1549 14.2972 15.3491 14.1752 15.5391 14.0755C15.7283 13.9766 15.9312 13.8819 16.1479 13.7917L16.3917 12.6C16.4278 12.4736 16.4863 12.37 16.5672 12.2891C16.6488 12.2075 16.7618 12.1667 16.9062 12.1667H18.2063C18.3507 12.1667 18.4637 12.2075 18.5453 12.2891C18.6262 12.37 18.6847 12.4736 18.7208 12.6L18.9646 13.7917C19.1812 13.8819 19.3889 13.9856 19.5875 14.1026C19.7861 14.2203 19.9757 14.3514 20.1562 14.4958L21.2938 14.0896C21.4201 14.0535 21.5422 14.0578 21.6599 14.1026C21.7769 14.1481 21.8715 14.225 21.9438 14.3333L22.5938 15.4708C22.666 15.5792 22.6887 15.6965 22.662 15.8229C22.6346 15.9493 22.5757 16.0576 22.4854 16.1479L21.5646 16.9333C21.6007 17.1681 21.6188 17.3938 21.6188 17.6104C21.6188 17.8271 21.6007 18.0528 21.5646 18.2875L22.4583 19.0729C22.5486 19.1632 22.6118 19.2715 22.6479 19.3979C22.684 19.5243 22.666 19.6417 22.5938 19.75L21.9438 20.8333C21.8715 20.9417 21.7812 21.0182 21.6729 21.063C21.5646 21.1085 21.4472 21.1132 21.3208 21.0771L20.1562 20.725C19.9576 20.8694 19.7637 20.9915 19.5745 21.0912C19.3846 21.1901 19.1812 21.2847 18.9646 21.375L18.7208 22.5667C18.6847 22.6931 18.6262 22.7967 18.5453 22.8776C18.4637 22.9592 18.3507 23 18.2063 23H16.9062C16.7618 23 16.6488 22.9592 16.5672 22.8776C16.4863 22.7967 16.4278 22.6931 16.3917 22.5667L16.1479 21.375ZM17.5563 19.75C18.1521 19.75 18.6623 19.538 19.087 19.1141C19.5109 18.6894 19.7229 18.1792 19.7229 17.5833C19.7229 16.9875 19.5109 16.4773 19.087 16.0526C18.6623 15.6286 18.1521 15.4167 17.5563 15.4167C16.9604 15.4167 16.4502 15.6286 16.0255 16.0526C15.6016 16.4773 15.3896 16.9875 15.3896 17.5833C15.3896 18.1792 15.6016 18.6894 16.0255 19.1141C16.4502 19.538 16.9604 19.75 17.5563 19.75Z" fill="#202020"></path>
                                </svg>