<svg width="20" height="20" viewBox="0 0 20 20" fill="none" xmlns="http://www.w3.org/2000/svg">
                                    <path d="M2.41667 19.75C1.82083 19.75 1.31058 19.538 0.885917 19.1141C0.461972 18.6894 0.25 18.1792 0.25 17.5833V2.41667C0.25 1.82083 0.461972 1.31058 0.885917 0.885917C1.31058 0.461972 1.82083 0.25 2.41667 0.25H17.5833C18.1792 0.25 18.6894 0.461972 19.1141 0.885917C19.538 1.31058 19.75 1.82083 19.75 2.41667V17.5833C19.75 18.1792 19.538 18.6894 19.1141 19.1141C18.6894 19.538 18.1792 19.75 17.5833 19.75H2.41667ZM2.41667 17.5833H17.5833V2.41667H2.41667V17.5833ZM9.35 15.4167H10.65C10.7764 15.4167 10.8847 15.3759 10.975 15.2942C11.0653 15.2134 11.1285 15.1097 11.1646 14.9833L11.4083 13.7917C11.625 13.7014 11.8283 13.6068 12.0183 13.5078C12.2075 13.4082 12.4014 13.2861 12.6 13.1417L13.7646 13.4938C13.891 13.5299 14.0083 13.5255 14.1167 13.4808C14.225 13.4353 14.3153 13.3583 14.3875 13.25L15.0375 12.1667C15.1097 12.0583 15.1278 11.941 15.0917 11.8146C15.0556 11.6882 14.9924 11.5799 14.9021 11.4896L14.0083 10.7042C14.0444 10.4514 14.0625 10.2167 14.0625 10C14.0625 9.78333 14.0444 9.54861 14.0083 9.29583L14.9021 8.51042C14.9924 8.42014 15.0556 8.31181 15.0917 8.18542C15.1278 8.05903 15.1097 7.94167 15.0375 7.83333L14.3875 6.75C14.3153 6.64167 14.225 6.56475 14.1167 6.51925C14.0083 6.47447 13.891 6.47014 13.7646 6.50625L12.6 6.85833C12.4014 6.71389 12.2075 6.59183 12.0183 6.49217C11.8283 6.39322 11.625 6.29861 11.4083 6.20833L11.1646 5.01667C11.1285 4.89028 11.0653 4.78628 10.975 4.70467C10.8847 4.62378 10.7764 4.58333 10.65 4.58333H9.35C9.22361 4.58333 9.11528 4.62378 9.025 4.70467C8.93472 4.78628 8.87153 4.89028 8.83542 5.01667L8.59167 6.20833C8.375 6.29861 8.17169 6.39322 7.98175 6.49217C7.79253 6.59183 7.59861 6.71389 7.4 6.85833L6.23542 6.50625C6.10903 6.47014 5.99167 6.47447 5.88333 6.51925C5.775 6.56475 5.68472 6.64167 5.6125 6.75L4.9625 7.83333C4.89028 7.94167 4.87222 8.05903 4.90833 8.18542C4.94444 8.31181 5.00764 8.42014 5.09792 8.51042L5.99167 9.29583C5.95556 9.54861 5.9375 9.78333 5.9375 10C5.9375 10.2167 5.95556 10.4514 5.99167 10.7042L5.09792 11.4896C5.00764 11.5799 4.94444 11.6882 4.90833 11.8146C4.87222 11.941 4.89028 12.0583 4.9625 12.1667L5.6125 13.25C5.68472 13.3583 5.775 13.4353 5.88333 13.4808C5.99167 13.5255 6.10903 13.5299 6.23542 13.4938L7.4 13.1417C7.59861 13.2861 7.79253 13.4082 7.98175 13.5078C8.17169 13.6068 8.375 13.7014 8.59167 13.7917L8.83542 14.9833C8.87153 15.1097 8.93472 15.2134 9.025 15.2942C9.11528 15.3759 9.22361 15.4167 9.35 15.4167ZM10 12.1667C9.40417 12.1667 8.89428 11.9543 8.47033 11.5297C8.04567 11.1057 7.83333 10.5958 7.83333 10C7.83333 9.40417 8.04567 8.89392 8.47033 8.46925C8.89428 8.04531 9.40417 7.83333 10 7.83333C10.5958 7.83333 11.1061 8.04531 11.5308 8.46925C11.9547 8.89392 12.1667 9.40417 12.1667 10C12.1667 10.5958 11.9547 11.1057 11.5308 11.5297C11.1061 11.9543 10.5958 12.1667 10 12.1667Z" fill="#202020"></path>
                                </svg>