<svg width="23" height="23" viewBox="0 0 23 23" fill="none" xmlns="http://www.w3.org/2000/svg">
                                    <path d="M11 9.48342V5.58342C11 5.27647 10.8964 5.019 10.6891 4.811C10.4811 4.60372 10.2236 4.50008 9.91667 4.50008C9.60973 4.50008 9.35262 4.60372 9.14534 4.811C8.93734 5.019 8.83334 5.27647 8.83334 5.58342V9.91675C8.83334 10.0612 8.86042 10.1966 8.91459 10.323C8.96875 10.4494 9.05001 10.5667 9.15834 10.6751L11.325 12.8417C11.5417 13.0584 11.7944 13.1667 12.0833 13.1667C12.3722 13.1667 12.625 13.0584 12.8417 12.8417C13.0583 12.6251 13.1667 12.3723 13.1667 12.0834C13.1667 11.7945 13.0583 11.5417 12.8417 11.3251L11 9.48342ZM7.96667 17.2563C8.25556 16.3897 8.76581 15.6718 9.49742 15.1027C10.2283 14.5343 11.0722 14.2501 12.0292 14.2501H16.1458C16.5792 13.6362 16.9132 12.9634 17.1479 12.2318C17.3826 11.5009 17.5 10.7292 17.5 9.91675C17.5 7.80425 16.7644 6.01205 15.2933 4.54016C13.8214 3.069 12.0292 2.33341 9.91667 2.33341C7.80417 2.33341 6.01234 3.069 4.54117 4.54016C3.06928 6.01205 2.33334 7.80425 2.33334 9.91675C2.33334 11.6862 2.86164 13.2433 3.91826 14.5881C4.97414 15.9336 6.32362 16.823 7.96667 17.2563ZM12.0833 22.9167C11.0361 22.9167 10.1153 22.5871 9.32084 21.9277C8.52639 21.269 8.02987 20.4431 7.83125 19.4501C5.62848 18.9806 3.80053 17.8612 2.34742 16.0917C0.893588 14.3223 0.166672 12.264 0.166672 9.91675C0.166672 7.20842 1.11459 4.90633 3.01042 3.0105C4.90626 1.11466 7.20834 0.166748 9.91667 0.166748C12.625 0.166748 14.9271 1.11466 16.8229 3.0105C18.7188 4.90633 19.6667 7.20842 19.6667 9.91675C19.6667 10.6931 19.5811 11.4468 19.4099 12.1777C19.238 12.9093 18.9896 13.6001 18.6646 14.2501C19.8563 14.2501 20.863 14.6744 21.6849 15.523C22.5061 16.3716 22.9167 17.3917 22.9167 18.5834C22.9167 19.7751 22.4924 20.7952 21.6438 21.6438C20.7951 22.4924 19.775 22.9167 18.5833 22.9167H12.0833ZM12.0833 20.7501H18.5833C19.1792 20.7501 19.6894 20.5381 20.1141 20.1142C20.538 19.6895 20.75 19.1792 20.75 18.5834C20.75 17.9876 20.538 17.4773 20.1141 17.0527C19.6894 16.6287 19.1792 16.4167 18.5833 16.4167H12.0833C11.4875 16.4167 10.9776 16.6287 10.5537 17.0527C10.129 17.4773 9.91667 17.9876 9.91667 18.5834C9.91667 19.1792 10.129 19.6895 10.5537 20.1142C10.9776 20.5381 11.4875 20.7501 12.0833 20.7501ZM12.0833 19.6667C11.7764 19.6667 11.5193 19.5627 11.312 19.3547C11.104 19.1475 11 18.8904 11 18.5834C11 18.2765 11.104 18.0194 11.312 17.8121C11.5193 17.6041 11.7764 17.5001 12.0833 17.5001C12.3903 17.5001 12.6478 17.6041 12.8558 17.8121C13.063 18.0194 13.1667 18.2765 13.1667 18.5834C13.1667 18.8904 13.063 19.1475 12.8558 19.3547C12.6478 19.5627 12.3903 19.6667 12.0833 19.6667ZM15.3333 19.6667C15.0264 19.6667 14.7693 19.5627 14.562 19.3547C14.354 19.1475 14.25 18.8904 14.25 18.5834C14.25 18.2765 14.354 18.0194 14.562 17.8121C14.7693 17.6041 15.0264 17.5001 15.3333 17.5001C15.6403 17.5001 15.8974 17.6041 16.1047 17.8121C16.3127 18.0194 16.4167 18.2765 16.4167 18.5834C16.4167 18.8904 16.3127 19.1475 16.1047 19.3547C15.8974 19.5627 15.6403 19.6667 15.3333 19.6667ZM18.5833 19.6667C18.2764 19.6667 18.0193 19.5627 17.812 19.3547C17.604 19.1475 17.5 18.8904 17.5 18.5834C17.5 18.2765 17.604 18.0194 17.812 17.8121C18.0193 17.6041 18.2764 17.5001 18.5833 17.5001C18.8903 17.5001 19.1474 17.6041 19.3547 17.8121C19.5627 18.0194 19.6667 18.2765 19.6667 18.5834C19.6667 18.8904 19.5627 19.1475 19.3547 19.3547C19.1474 19.5627 18.8903 19.6667 18.5833 19.6667Z" fill="#202020"></path>
                                </svg>