<svg width="14" height="14" viewBox="0 0 14 14" fill="none" xmlns="http://www.w3.org/2000/svg">
                <path d="M12.9625 13.75C11.35 13.75 9.77825 13.3905 8.24725 12.6715C6.71575 11.953 5.3595 11.003 4.1785 9.8215C2.997 8.6405 2.047 7.28425 1.3285 5.75275C0.6095 4.22175 0.25 2.65 0.25 1.0375C0.25 0.8125 0.325 0.625 0.475 0.475C0.625 0.325 0.8125 0.25 1.0375 0.25H4.075C4.25 0.25 4.40625 0.30625 4.54375 0.41875C4.68125 0.53125 4.7625 0.675 4.7875 0.85L5.275 3.475C5.3 3.65 5.297 3.80925 5.266 3.95275C5.2345 4.09675 5.1625 4.225 5.05 4.3375L3.23125 6.175C3.75625 7.075 4.41575 7.91875 5.20975 8.70625C6.00325 9.49375 6.875 10.175 7.825 10.75L9.5875 8.9875C9.7 8.875 9.847 8.7905 10.0285 8.734C10.2095 8.678 10.3875 8.6625 10.5625 8.6875L13.15 9.2125C13.325 9.25 13.4688 9.33425 13.5812 9.46525C13.6937 9.59675 13.75 9.75 13.75 9.925V12.9625C13.75 13.1875 13.675 13.375 13.525 13.525C13.375 13.675 13.1875 13.75 12.9625 13.75ZM2.51875 4.75L3.75625 3.5125L3.4375 1.75H1.76875C1.83125 2.2625 1.91875 2.76875 2.03125 3.26875C2.14375 3.76875 2.30625 4.2625 2.51875 4.75ZM12.25 12.2125V10.5625L10.4875 10.2062L9.23125 11.4625C9.71875 11.675 10.2157 11.8438 10.7222 11.9688C11.2282 12.0938 11.7375 12.175 12.25 12.2125Z" fill="#202020"></path>
            </svg>