<svg width="20" height="20" viewBox="0 0 20 20" fill="none" xmlns="http://www.w3.org/2000/svg">
                                <path d="M15.5792 19.425L9.025 12.8167C8.66389 12.9611 8.29844 13.0694 7.92867 13.1417C7.55817 13.2139 7.16528 13.25 6.75 13.25C4.94444 13.25 3.40972 12.6181 2.14583 11.3542C0.881945 10.0903 0.25 8.55556 0.25 6.75C0.25 6.1 0.340278 5.48142 0.520833 4.89425C0.701389 4.30781 0.954167 3.75278 1.27917 3.22917L5.23333 7.18333L7.18333 5.23333L3.22917 1.27917C3.75278 0.954167 4.30781 0.701389 4.89425 0.520833C5.48142 0.340278 6.1 0.25 6.75 0.25C8.55556 0.25 10.0903 0.881945 11.3542 2.14583C12.6181 3.40972 13.25 4.94444 13.25 6.75C13.25 7.16528 13.2139 7.55781 13.1417 7.92758C13.0694 8.29808 12.9611 8.66389 12.8167 9.025L19.425 15.5792C19.6417 15.7958 19.75 16.0576 19.75 16.3646C19.75 16.6715 19.6417 16.9333 19.425 17.15L17.15 19.425C16.9333 19.6417 16.6715 19.75 16.3646 19.75C16.0576 19.75 15.7958 19.6417 15.5792 19.425ZM16.3646 17.1229L17.0958 16.3917L10.1625 9.45833C10.4875 9.09722 10.7222 8.67725 10.8667 8.19842C11.0111 7.72031 11.0833 7.2375 11.0833 6.75C11.0833 5.66667 10.7359 4.72308 10.0412 3.91925C9.34567 3.11614 8.48333 2.63333 7.45417 2.47083L9.45833 4.475C9.675 4.69167 9.78333 4.94444 9.78333 5.23333C9.78333 5.52222 9.675 5.775 9.45833 5.99167L5.99167 9.45833C5.775 9.675 5.52222 9.78333 5.23333 9.78333C4.94444 9.78333 4.69167 9.675 4.475 9.45833L2.47083 7.45417C2.63333 8.48333 3.1165 9.34531 3.92033 10.0401C4.72344 10.7356 5.66667 11.0833 6.75 11.0833C7.21944 11.0833 7.68889 11.0111 8.15833 10.8667C8.62778 10.7222 9.05208 10.4965 9.43125 10.1896L16.3646 17.1229Z" fill="#202020"></path>
                            </svg>