<svg width="28" height="27" viewBox="0 0 28 27" fill="none" xmlns="http://www.w3.org/2000/svg">
                                <path d="M22.7 8.06664C22.5889 8.06664 22.4724 8.03331 22.3507 7.96664C22.228 7.89998 22.1444 7.79998 22.1 7.66664L21.2333 5.79997L19.3667 4.93331C19.2333 4.88886 19.1333 4.80531 19.0667 4.68264C19 4.56086 18.9667 4.44442 18.9667 4.33331C18.9667 4.2222 19 4.10531 19.0667 3.98264C19.1333 3.86086 19.2333 3.77775 19.3667 3.73331L21.2333 2.86664L22.1 0.999976C22.1444 0.866642 22.228 0.766642 22.3507 0.699976C22.4724 0.633309 22.5889 0.599976 22.7 0.599976C22.8111 0.599976 22.928 0.633309 23.0507 0.699976C23.1724 0.766642 23.2556 0.866642 23.3 0.999976L24.1667 2.86664L26.0333 3.73331C26.1667 3.77775 26.2667 3.86086 26.3333 3.98264C26.4 4.10531 26.4333 4.2222 26.4333 4.33331C26.4333 4.44442 26.4 4.56086 26.3333 4.68264C26.2667 4.80531 26.1667 4.88886 26.0333 4.93331L24.1667 5.79997L23.3 7.66664C23.2556 7.79998 23.1724 7.89998 23.0507 7.96664C22.928 8.03331 22.8111 8.06664 22.7 8.06664ZM25.3667 17.4333C25.2556 17.4333 25.1444 17.4 25.0333 17.3333C24.9222 17.2666 24.8333 17.1778 24.7667 17.0666L24.3 16.0666L23.3 15.6C23.2333 15.5555 23.1111 15.3555 22.9333 15C22.9333 14.8889 22.9667 14.7778 23.0333 14.6666C23.1 14.5555 23.1889 14.4666 23.3 14.4L24.3 13.9333L24.7667 12.9333C24.8111 12.8666 25.0111 12.7444 25.3667 12.5666C25.4778 12.5666 25.5889 12.6 25.7 12.6666C25.8111 12.7333 25.9 12.8222 25.9667 12.9333L26.4333 13.9333L27.4333 14.4C27.5 14.4444 27.6222 14.6444 27.8 15C27.8 15.1111 27.7667 15.2222 27.7 15.3333C27.6333 15.4444 27.5444 15.5333 27.4333 15.6L26.4333 16.0666L25.9667 17.0666C25.9222 17.1333 25.7222 17.2555 25.3667 17.4333ZM9.2 26.3333C8.86666 26.3333 8.57777 26.2222 8.33333 26C8.08888 25.7778 7.94444 25.5 7.9 25.1666L7.63333 23.2C7.45555 23.1333 7.28355 23.0444 7.11733 22.9333C6.95022 22.8222 6.81111 22.7111 6.7 22.6L4.86666 23.4C4.55555 23.5555 4.23911 23.5778 3.91733 23.4666C3.59466 23.3555 3.34444 23.1444 3.16666 22.8333L1.03333 19.1C0.855552 18.8111 0.805774 18.5 0.883996 18.1666C0.96133 17.8333 1.13333 17.5666 1.4 17.3666L2.96666 16.2V15.1333L1.4 13.9666C1.13333 13.7666 0.96133 13.5 0.883996 13.1666C0.805774 12.8333 0.855552 12.5222 1.03333 12.2333L3.16666 8.49998C3.34444 8.18886 3.59466 7.97775 3.91733 7.86664C4.23911 7.75553 4.55555 7.77775 4.86666 7.93331L6.7 8.73331C6.81111 8.6222 6.95022 8.51109 7.11733 8.39998C7.28355 8.28886 7.45555 8.19998 7.63333 8.13331L7.9 6.16664C7.94444 5.83331 8.08888 5.55553 8.33333 5.33331C8.57777 5.11109 8.86666 4.99998 9.2 4.99998H13.5333C13.8667 4.99998 14.1556 5.11109 14.4 5.33331C14.6444 5.55553 14.7889 5.83331 14.8333 6.16664L15.1 8.13331C15.2778 8.19998 15.4502 8.28886 15.6173 8.39998C15.7836 8.51109 15.9222 8.6222 16.0333 8.73331L17.8667 7.93331C18.1778 7.77775 18.4947 7.75553 18.8173 7.86664C19.1391 7.97775 19.3889 8.18886 19.5667 8.49998L21.7 12.2333C21.8778 12.5222 21.928 12.8333 21.8507 13.1666C21.7724 13.5 21.6 13.7666 21.3333 13.9666L19.7667 15.1333V16.2L21.3333 17.3666C21.6 17.5666 21.7724 17.8333 21.8507 18.1666C21.928 18.5 21.8778 18.8111 21.7 19.1L19.5667 22.8333C19.3889 23.1444 19.1391 23.3555 18.8173 23.4666C18.4947 23.5778 18.1778 23.5555 17.8667 23.4L16.0333 22.6C15.9222 22.7111 15.7836 22.8222 15.6173 22.9333C15.4502 23.0444 15.2778 23.1333 15.1 23.2L14.8333 25.1666C14.7889 25.5 14.6444 25.7778 14.4 26C14.1556 26.2222 13.8667 26.3333 13.5333 26.3333H9.2ZM11.3667 19.6666C12.4778 19.6666 13.4222 19.2778 14.2 18.5C14.9778 17.7222 15.3667 16.7778 15.3667 15.6666C15.3667 14.5555 14.9778 13.6111 14.2 12.8333C13.4222 12.0555 12.4778 11.6666 11.3667 11.6666C10.2556 11.6666 9.31111 12.0555 8.53333 12.8333C7.75555 13.6111 7.36666 14.5555 7.36666 15.6666C7.36666 16.7778 7.75555 17.7222 8.53333 18.5C9.31111 19.2778 10.2556 19.6666 11.3667 19.6666ZM11.3667 17C10.9889 17 10.672 16.872 10.416 16.616C10.1609 16.3609 10.0333 16.0444 10.0333 15.6666C10.0333 15.2889 10.1609 14.972 10.416 14.716C10.672 14.4609 10.9889 14.3333 11.3667 14.3333C11.7444 14.3333 12.0613 14.4609 12.3173 14.716C12.5724 14.972 12.7 15.2889 12.7 15.6666C12.7 16.0444 12.5724 16.3609 12.3173 16.616C12.0613 16.872 11.7444 17 11.3667 17ZM10.3667 23.6666H12.3667L12.6333 21.2666C13.2778 21.0889 13.828 20.8613 14.284 20.584C14.7391 20.3058 15.1889 19.9333 15.6333 19.4666L17.8333 20.4666L18.7667 18.8L16.8333 17.3333C17.0111 16.8222 17.1 16.2666 17.1 15.6666C17.1 15.0666 17.0111 14.5111 16.8333 14L18.7667 12.5333L17.8333 10.8666L15.6333 11.8666C15.1889 11.4 14.7391 11.0275 14.284 10.7493C13.828 10.472 13.2778 10.2444 12.6333 10.0666L12.3667 7.66664H10.3667L10.1 10.0666C9.45555 10.2444 8.90577 10.472 8.45066 10.7493C7.99466 11.0275 7.54444 11.4 7.1 11.8666L4.9 10.8666L3.96666 12.5333L5.9 14C5.72222 14.5111 5.628 15.0666 5.61733 15.6666C5.60577 16.2666 5.7 16.8222 5.9 17.3333L3.96666 18.8L4.9 20.4666L7.1 19.4666C7.54444 19.9333 7.99466 20.3058 8.45066 20.584C8.90577 20.8613 9.45555 21.0889 10.1 21.2666L10.3667 23.6666Z" fill="#202020"></path>
                            </svg>