<svg width="30" height="28" viewBox="0 0 30 28" fill="none" xmlns="http://www.w3.org/2000/svg">
                                <path d="M7.93333 23.7333L4.26666 22.9333C3.93333 22.8666 3.66666 22.6942 3.46666 22.416C3.26666 22.1386 3.18888 21.8333 3.23333 21.5L3.6 17.7333L1.1 14.8666C0.877774 14.6222 0.766663 14.3333 0.766663 13.9999C0.766663 13.6666 0.877774 13.3777 1.1 13.1333L3.6 10.2666L3.23333 6.49995C3.18888 6.16662 3.26666 5.86128 3.46666 5.58395C3.66666 5.30573 3.93333 5.13328 4.26666 5.06662L7.93333 4.26662L9.86666 0.999949C10.0444 0.71106 10.2889 0.522172 10.6 0.433283C10.9111 0.344394 11.2222 0.355505 11.5333 0.466616L15 1.93328L18.4667 0.466616C18.7778 0.355505 19.0889 0.344394 19.4 0.433283C19.7111 0.522172 19.9556 0.71106 20.1333 0.999949L22.0667 4.26662L25.7333 5.06662C26.0667 5.13328 26.3333 5.30573 26.5333 5.58395C26.7333 5.86128 26.8111 6.16662 26.7667 6.49995L26.4 10.2666L28.9 13.1333C29.1222 13.3777 29.2333 13.6666 29.2333 13.9999C29.2333 14.3333 29.1222 14.6222 28.9 14.8666L26.4 17.7333L26.7667 21.5C26.8111 21.8333 26.7333 22.1386 26.5333 22.416C26.3333 22.6942 26.0667 22.8666 25.7333 22.9333L22.0667 23.7333L20.1333 27C19.9556 27.2888 19.7111 27.4777 19.4 27.5666C19.0889 27.6555 18.7778 27.6444 18.4667 27.5333L15 26.0666L11.5333 27.5333C11.2222 27.6444 10.9111 27.6555 10.6 27.5666C10.2889 27.4777 10.0444 27.2888 9.86666 27L7.93333 23.7333ZM12.6667 17.7999C12.9111 18.0444 13.2222 18.1666 13.6 18.1666C13.9778 18.1666 14.2889 18.0444 14.5333 17.7999L20.2 12.1333C20.4667 11.8666 20.6 11.5497 20.6 11.1826C20.6 10.8164 20.4667 10.4999 20.2 10.2333C19.9333 9.96662 19.6169 9.83328 19.2507 9.83328C18.8836 9.83328 18.5667 9.96662 18.3 10.2333L13.6 14.9333L11.6667 13.0333C11.4 12.7888 11.0836 12.6719 10.7173 12.6826C10.3502 12.6942 10.0444 12.8222 9.8 13.0666C9.55555 13.3111 9.43333 13.6222 9.43333 13.9999C9.43333 14.3777 9.55555 14.6888 9.8 14.9333L12.6667 17.7999ZM11.6 24.6L15 23.1333L18.4667 24.6L20.3333 21.3999L24 20.5333L23.6667 16.7999L26.1333 13.9999L23.6667 11.1333L24 7.39995L20.3333 6.59995L18.4 3.39995L15 4.86662L11.5333 3.39995L9.66666 6.59995L6 7.39995L6.33333 11.1333L3.86666 13.9999L6.33333 16.7999L6 20.6L9.66666 21.3999L11.6 24.6Z" fill="#202020"></path>
                            </svg>