<svg width="22" height="20" viewBox="0 0 22 20" fill="none" xmlns="http://www.w3.org/2000/svg">
                                <path d="M16.4167 19.75C16.1097 19.75 15.8526 19.646 15.6453 19.438C15.4373 19.2307 15.3333 18.9736 15.3333 18.6667V10C15.3333 9.69306 15.4373 9.43558 15.6453 9.22758C15.8526 9.02031 16.1097 8.91667 16.4167 8.91667H20.75C21.0569 8.91667 21.314 9.02031 21.5213 9.22758C21.7293 9.43558 21.8333 9.69306 21.8333 10V18.6667C21.8333 18.9736 21.7293 19.2307 21.5213 19.438C21.314 19.646 21.0569 19.75 20.75 19.75H16.4167ZM16.4167 17.5833H20.75V11.0833H16.4167V17.5833ZM7.74999 19.75C7.44305 19.75 7.18593 19.646 6.97866 19.438C6.77066 19.2307 6.66666 18.9736 6.66666 18.6667C6.66666 18.3597 6.77066 18.1026 6.97866 17.8953C7.18593 17.6873 7.44305 17.5833 7.74999 17.5833H8.83332V15.4167H2.33332C1.73749 15.4167 1.2276 15.2047 0.803657 14.7808C0.37899 14.3561 0.166656 13.8458 0.166656 13.25V2.41667C0.166656 1.82083 0.37899 1.31058 0.803657 0.885917C1.2276 0.461972 1.73749 0.25 2.33332 0.25H17.5C18.0958 0.25 18.6061 0.461972 19.0307 0.885917C19.4547 1.31058 19.6667 1.82083 19.6667 2.41667V5.66667C19.6667 5.97361 19.5627 6.23072 19.3547 6.438C19.1474 6.646 18.8903 6.75 18.5833 6.75C18.2764 6.75 18.0193 6.646 17.812 6.438C17.604 6.23072 17.5 5.97361 17.5 5.66667V2.41667H2.33332V13.25H12.0833C12.3903 13.25 12.6477 13.3536 12.8557 13.5609C13.063 13.7689 13.1667 14.0264 13.1667 14.3333C13.1667 14.6403 13.063 14.8974 12.8557 15.1047C12.6477 15.3127 12.3903 15.4167 12.0833 15.4167H11V17.5833H12.0833C12.3903 17.5833 12.6477 17.6873 12.8557 17.8953C13.063 18.1026 13.1667 18.3597 13.1667 18.6667C13.1667 18.9736 13.063 19.2307 12.8557 19.438C12.6477 19.646 12.3903 19.75 12.0833 19.75H7.74999ZM8.75207 10.8938L9.91666 10L11.0812 10.8938C11.2799 11.0563 11.4922 11.0606 11.7182 10.9068C11.9436 10.7536 12.0111 10.5507 11.9208 10.2979L11.4875 8.80833L12.7875 7.77917C12.9861 7.61667 13.0403 7.41336 12.95 7.16925C12.8597 6.92586 12.6882 6.80417 12.4354 6.80417H10.8917L10.4312 5.36875C10.3951 5.24236 10.3276 5.14775 10.2287 5.08492C10.129 5.02136 10.025 4.98958 9.91666 4.98958C9.80832 4.98958 9.70469 5.02136 9.60574 5.08492C9.50607 5.14775 9.43818 5.24236 9.40207 5.36875L8.94166 6.80417H7.39791C7.14513 6.80417 6.9736 6.92586 6.88332 7.16925C6.79305 7.41336 6.84721 7.61667 7.04582 7.77917L8.34582 8.80833L7.91249 10.2979C7.82221 10.5507 7.8901 10.7536 8.11616 10.9068C8.34149 11.0606 8.55346 11.0563 8.75207 10.8938Z" fill="#202020"></path>
                            </svg>